<svg width="25" height="24" viewBox="0 0 25 24" fill="none" xmlns="http://www.w3.org/2000/svg">
<g clip-path="url(#clip0_15_1160)">
<path d="M5.80387 21.8571L2.52273 18.576C1.8797 17.9332 1.51835 17.0612 1.51816 16.152V8.99999C1.51816 8.54533 1.69877 8.1093 2.02026 7.78781C2.34175 7.46632 2.77779 7.28571 3.23244 7.28571C3.6871 7.28571 4.12314 7.46632 4.44463 7.78781C4.76612 8.1093 4.94673 8.54533 4.94673 8.99999V14.1428M19.4462 21.8571L22.7273 18.576C23.3697 17.9329 23.7304 17.061 23.7302 16.152V8.99999C23.7302 8.54533 23.5495 8.1093 23.2281 7.78781C22.9066 7.46632 22.4705 7.28571 22.0159 7.28571C21.5612 7.28571 21.1252 7.46632 20.8037 7.78781C20.4822 8.1093 20.3016 8.54533 20.3016 8.99999V14.1428" stroke="#494747" stroke-width="1.5" stroke-linecap="round" stroke-linejoin="round"/>
<path d="M6.5153 17.2766L5.3033 16.0646C4.99103 15.7412 4.81824 15.3082 4.82215 14.8587C4.82605 14.4093 5.00634 13.9793 5.32419 13.6614C5.64203 13.3436 6.07199 13.1633 6.52147 13.1594C6.97095 13.1555 7.40399 13.3283 7.7273 13.6406L9.94387 15.8571C10.5863 16.5003 10.947 17.3721 10.9467 18.2811V21.8571M18.7347 17.2766L19.9467 16.0646C20.259 15.7412 20.4318 15.3082 20.4279 14.8587C20.424 14.4093 20.2437 13.9793 19.9258 13.6614C19.608 13.3436 19.178 13.1633 18.7286 13.1594C18.2791 13.1555 17.8461 13.3283 17.5227 13.6406L15.3062 15.8571C14.6638 16.5003 14.303 17.3721 14.3033 18.2811V21.8571M16.0896 8.856C16.0896 6.924 12.661 2.14285 12.661 2.14285C12.661 2.14285 9.23245 6.92571 9.23245 8.856C9.23245 9.80228 9.59416 10.7126 10.237 11.3829C10.8799 12.0514 11.7524 12.4286 12.661 12.4286C13.5696 12.4286 14.4439 12.0514 15.0867 11.3829C15.7338 10.701 16.093 9.79596 16.0896 8.856Z" stroke="#494747" stroke-width="1.5" stroke-linecap="round" stroke-linejoin="round"/>
</g>
<defs>
<clipPath id="clip0_15_1160">
<rect width="24" height="24" fill="white" transform="translate(0.625)"/>
</clipPath>
</defs>
</svg>
