<svg width="25" height="24" viewBox="0 0 25 24" fill="none" xmlns="http://www.w3.org/2000/svg">
<g clip-path="url(#clip0_15_1154)">
<path d="M13.1818 22.4059C14.0705 22.9781 15.1283 23.2289 16.1793 23.1166C17.2303 23.0043 18.2113 22.5358 18.959 21.7887L19.6105 21.1373C19.8993 20.8452 20.0615 20.4509 20.0615 20.0402C20.0615 19.6292 19.8993 19.2351 19.6105 18.943L16.8676 16.2173C16.5784 15.9294 16.187 15.7678 15.779 15.7678C15.371 15.7678 14.9796 15.9294 14.6904 16.2173C14.3983 16.5062 14.0041 16.6683 13.5933 16.6683C13.1824 16.6683 12.7882 16.5062 12.4961 16.2173L8.12469 11.8459C7.83575 11.5538 7.6737 11.1596 7.6737 10.7487C7.6737 10.3379 7.83575 9.94364 8.12469 9.65157C8.41257 9.36244 8.5742 8.97102 8.5742 8.563C8.5742 8.15498 8.41257 7.76358 8.12469 7.47443L5.48469 4.73157C5.19263 4.44265 4.79838 4.28058 4.38755 4.28058C3.97672 4.28058 3.58247 4.44265 3.29041 4.73157L2.63898 5.383C1.87853 6.12021 1.39392 7.09592 1.266 8.14729C1.13809 9.19868 1.37462 10.2621 1.93612 11.1601C4.92537 15.5981 8.74393 19.4167 13.1818 22.4059Z" stroke="#494747" stroke-width="1.5" stroke-linecap="round" stroke-linejoin="round"/>
<path d="M17.6135 0.857147C17.2091 0.857147 16.8812 1.18502 16.8812 1.58946V3.64914H14.8215C14.4171 3.64914 14.0892 3.97701 14.0892 4.38146V6.76149C14.0892 7.16592 14.4171 7.4938 14.8215 7.4938H16.8812V9.55341C16.8812 9.95784 17.2091 10.2857 17.6135 10.2857H19.9936C20.398 10.2857 20.7259 9.95784 20.7259 9.55341V7.4938H22.7855C23.1899 7.4938 23.5178 7.16592 23.5178 6.76149V4.38146C23.5178 3.97701 23.1899 3.64914 22.7855 3.64914H20.7259V1.58946C20.7259 1.18502 20.398 0.857147 19.9936 0.857147H17.6135Z" stroke="#494747" stroke-width="1.5" stroke-linecap="round" stroke-linejoin="round"/>
</g>
<defs>
<clipPath id="clip0_15_1154">
<rect width="24" height="24" fill="white" transform="translate(0.375)"/>
</clipPath>
</defs>
</svg>
